G04 Layer_Physical_Order=2*
G04 Layer_Color=16711680*
%FSLAX44Y44*%
%MOMM*%
G71*
G01*
G75*
%ADD10C,0.2540*%
%ADD11C,4.0000*%
%ADD12C,2.8000*%
%ADD13R,2.8000X2.8000*%
%ADD14C,5.0000*%
%ADD15C,1.5748*%
%ADD16C,1.6510*%
G36*
X3441700Y425450D02*
X2736850D01*
Y1041400D01*
X3441700D01*
Y425450D01*
D02*
G37*
%LPC*%
G36*
X3153440Y581690D02*
X3120360D01*
Y548610D01*
X3153440D01*
Y581690D01*
D02*
G37*
G36*
X3331240D02*
X3298160D01*
Y548610D01*
X3331240D01*
Y581690D01*
D02*
G37*
G36*
X2749550Y747488D02*
X2746732Y747117D01*
X2744106Y746029D01*
X2741851Y744299D01*
X2740121Y742044D01*
X2739033Y739418D01*
X2738662Y736600D01*
X2739033Y733782D01*
X2740121Y731156D01*
X2741851Y728901D01*
X2744106Y727171D01*
X2746732Y726083D01*
X2749550Y725712D01*
X2752368Y726083D01*
X2753928Y726729D01*
X2779061Y701595D01*
X2780321Y700753D01*
X2781808Y700457D01*
X2792899D01*
X2809820Y683536D01*
X2809254Y682169D01*
X2808896Y679450D01*
X2809254Y676731D01*
X2810303Y674198D01*
X2811973Y672023D01*
X2814148Y670353D01*
X2816682Y669304D01*
X2819400Y668946D01*
X2822119Y669304D01*
X2824652Y670353D01*
X2826827Y672023D01*
X2828497Y674198D01*
X2829546Y676731D01*
X2829904Y679450D01*
X2829546Y682169D01*
X2828497Y684702D01*
X2826827Y686877D01*
X2824652Y688547D01*
X2822119Y689596D01*
X2819400Y689954D01*
X2816682Y689596D01*
X2815314Y689030D01*
X2797255Y707089D01*
X2795995Y707931D01*
X2794508Y708227D01*
X2783417D01*
X2759421Y732223D01*
X2760067Y733782D01*
X2760438Y736600D01*
X2760067Y739418D01*
X2758979Y742044D01*
X2757249Y744299D01*
X2754994Y746029D01*
X2752368Y747117D01*
X2749550Y747488D01*
D02*
G37*
G36*
X2975640Y581690D02*
X2942560D01*
Y548610D01*
X2975640D01*
Y581690D01*
D02*
G37*
G36*
X3356700Y581770D02*
X3353458Y581451D01*
X3350340Y580505D01*
X3347466Y578969D01*
X3344948Y576902D01*
X3342881Y574384D01*
X3341345Y571510D01*
X3340399Y568392D01*
X3340080Y565150D01*
X3340399Y561908D01*
X3341345Y558790D01*
X3342881Y555916D01*
X3344948Y553398D01*
X3347466Y551331D01*
X3350340Y549795D01*
X3353458Y548849D01*
X3356700Y548530D01*
X3359942Y548849D01*
X3363060Y549795D01*
X3365934Y551331D01*
X3368452Y553398D01*
X3370519Y555916D01*
X3372055Y558790D01*
X3373000Y561908D01*
X3373320Y565150D01*
X3373000Y568392D01*
X3372055Y571510D01*
X3370519Y574384D01*
X3368452Y576902D01*
X3365934Y578969D01*
X3363060Y580505D01*
X3359942Y581451D01*
X3356700Y581770D01*
D02*
G37*
G36*
X3398700D02*
X3395457Y581451D01*
X3392339Y580505D01*
X3389466Y578969D01*
X3386948Y576902D01*
X3384881Y574384D01*
X3383345Y571510D01*
X3382399Y568392D01*
X3382080Y565150D01*
X3382399Y561908D01*
X3383345Y558790D01*
X3384881Y555916D01*
X3386948Y553398D01*
X3389466Y551331D01*
X3392339Y549795D01*
X3395457Y548849D01*
X3398700Y548530D01*
X3401942Y548849D01*
X3405060Y549795D01*
X3407933Y551331D01*
X3410452Y553398D01*
X3412519Y555916D01*
X3414055Y558790D01*
X3415001Y561908D01*
X3415320Y565150D01*
X3415001Y568392D01*
X3414055Y571510D01*
X3412519Y574384D01*
X3410452Y576902D01*
X3407933Y578969D01*
X3405060Y580505D01*
X3401942Y581451D01*
X3398700Y581770D01*
D02*
G37*
G36*
X2797840Y581690D02*
X2764760D01*
Y548610D01*
X2797840D01*
Y581690D01*
D02*
G37*
G36*
X3313250Y723620D02*
X3310008Y723300D01*
X3306890Y722355D01*
X3304017Y720819D01*
X3301498Y718752D01*
X3299431Y716233D01*
X3297895Y713360D01*
X3296949Y710242D01*
X3296630Y707000D01*
X3296949Y703757D01*
X3297895Y700640D01*
X3299431Y697766D01*
X3301498Y695248D01*
X3304017Y693181D01*
X3306890Y691645D01*
X3310008Y690699D01*
X3313250Y690380D01*
X3316493Y690699D01*
X3319610Y691645D01*
X3322484Y693181D01*
X3325002Y695248D01*
X3327069Y697766D01*
X3328605Y700640D01*
X3329551Y703757D01*
X3329870Y707000D01*
X3329551Y710242D01*
X3328605Y713360D01*
X3327069Y716233D01*
X3325002Y718752D01*
X3322484Y720819D01*
X3319610Y722355D01*
X3316493Y723300D01*
X3313250Y723620D01*
D02*
G37*
G36*
X3355250D02*
X3352008Y723300D01*
X3348890Y722355D01*
X3346017Y720819D01*
X3343498Y718752D01*
X3341431Y716233D01*
X3339895Y713360D01*
X3338949Y710242D01*
X3338630Y707000D01*
X3338949Y703757D01*
X3339895Y700640D01*
X3341431Y697766D01*
X3343498Y695248D01*
X3346017Y693181D01*
X3348890Y691645D01*
X3352008Y690699D01*
X3355250Y690380D01*
X3358492Y690699D01*
X3361610Y691645D01*
X3364484Y693181D01*
X3367002Y695248D01*
X3369069Y697766D01*
X3370605Y700640D01*
X3371551Y703757D01*
X3371870Y707000D01*
X3371551Y710242D01*
X3370605Y713360D01*
X3369069Y716233D01*
X3367002Y718752D01*
X3364484Y720819D01*
X3361610Y722355D01*
X3358492Y723300D01*
X3355250Y723620D01*
D02*
G37*
G36*
X2977250Y778620D02*
X2974007Y778301D01*
X2970890Y777355D01*
X2968016Y775819D01*
X2965498Y773752D01*
X2963431Y771234D01*
X2961895Y768360D01*
X2960949Y765242D01*
X2960630Y762000D01*
X2960949Y758758D01*
X2961895Y755640D01*
X2963431Y752766D01*
X2965498Y750248D01*
X2968016Y748181D01*
X2970890Y746645D01*
X2974007Y745699D01*
X2977250Y745380D01*
X2980492Y745699D01*
X2983610Y746645D01*
X2986483Y748181D01*
X2989002Y750248D01*
X2991069Y752766D01*
X2992605Y755640D01*
X2993550Y758758D01*
X2993870Y762000D01*
X2993550Y765242D01*
X2992605Y768360D01*
X2991069Y771234D01*
X2989002Y773752D01*
X2986483Y775819D01*
X2983610Y777355D01*
X2980492Y778301D01*
X2977250Y778620D01*
D02*
G37*
G36*
X3271250Y723620D02*
X3268007Y723300D01*
X3264890Y722355D01*
X3262016Y720819D01*
X3259498Y718752D01*
X3257431Y716233D01*
X3255895Y713360D01*
X3254949Y710242D01*
X3254630Y707000D01*
X3254949Y703757D01*
X3255895Y700640D01*
X3257431Y697766D01*
X3259498Y695248D01*
X3262016Y693181D01*
X3264890Y691645D01*
X3268007Y690699D01*
X3271250Y690380D01*
X3274492Y690699D01*
X3277610Y691645D01*
X3280483Y693181D01*
X3283002Y695248D01*
X3285069Y697766D01*
X3286605Y700640D01*
X3287550Y703757D01*
X3287870Y707000D01*
X3287550Y710242D01*
X3286605Y713360D01*
X3285069Y716233D01*
X3283002Y718752D01*
X3280483Y720819D01*
X3277610Y722355D01*
X3274492Y723300D01*
X3271250Y723620D01*
D02*
G37*
G36*
X2935250D02*
X2932007Y723300D01*
X2928890Y722355D01*
X2926016Y720819D01*
X2923498Y718752D01*
X2921431Y716233D01*
X2919895Y713360D01*
X2918949Y710242D01*
X2918630Y707000D01*
X2918949Y703757D01*
X2919895Y700640D01*
X2921431Y697766D01*
X2923498Y695248D01*
X2926016Y693181D01*
X2928890Y691645D01*
X2932007Y690699D01*
X2935250Y690380D01*
X2938492Y690699D01*
X2941610Y691645D01*
X2944484Y693181D01*
X2947002Y695248D01*
X2949069Y697766D01*
X2950605Y700640D01*
X2951551Y703757D01*
X2951870Y707000D01*
X2951551Y710242D01*
X2950605Y713360D01*
X2949069Y716233D01*
X2947002Y718752D01*
X2944484Y720819D01*
X2941610Y722355D01*
X2938492Y723300D01*
X2935250Y723620D01*
D02*
G37*
G36*
X2977250D02*
X2974007Y723300D01*
X2970890Y722355D01*
X2968016Y720819D01*
X2965498Y718752D01*
X2963431Y716233D01*
X2961895Y713360D01*
X2960949Y710242D01*
X2960630Y707000D01*
X2960949Y703757D01*
X2961895Y700640D01*
X2963431Y697766D01*
X2965498Y695248D01*
X2968016Y693181D01*
X2970890Y691645D01*
X2974007Y690699D01*
X2977250Y690380D01*
X2980492Y690699D01*
X2983610Y691645D01*
X2986483Y693181D01*
X2989002Y695248D01*
X2991069Y697766D01*
X2992605Y700640D01*
X2993550Y703757D01*
X2993870Y707000D01*
X2993550Y710242D01*
X2992605Y713360D01*
X2991069Y716233D01*
X2989002Y718752D01*
X2986483Y720819D01*
X2983610Y722355D01*
X2980492Y723300D01*
X2977250Y723620D01*
D02*
G37*
G36*
X3229250D02*
X3226007Y723300D01*
X3222890Y722355D01*
X3220016Y720819D01*
X3217498Y718752D01*
X3215431Y716233D01*
X3213895Y713360D01*
X3212949Y710242D01*
X3212630Y707000D01*
X3212949Y703757D01*
X3213895Y700640D01*
X3215431Y697766D01*
X3217498Y695248D01*
X3220016Y693181D01*
X3222890Y691645D01*
X3226007Y690699D01*
X3229250Y690380D01*
X3232492Y690699D01*
X3235610Y691645D01*
X3238483Y693181D01*
X3241002Y695248D01*
X3243069Y697766D01*
X3244605Y700640D01*
X3245551Y703757D01*
X3245870Y707000D01*
X3245551Y710242D01*
X3244605Y713360D01*
X3243069Y716233D01*
X3241002Y718752D01*
X3238483Y720819D01*
X3235610Y722355D01*
X3232492Y723300D01*
X3229250Y723620D01*
D02*
G37*
G36*
X3136900Y519775D02*
X3132578Y519435D01*
X3128363Y518423D01*
X3124359Y516764D01*
X3120662Y514499D01*
X3117366Y511684D01*
X3114551Y508388D01*
X3112286Y504691D01*
X3110627Y500686D01*
X3109615Y496471D01*
X3109275Y492150D01*
X3109615Y487828D01*
X3110627Y483613D01*
X3112286Y479608D01*
X3114551Y475912D01*
X3117366Y472616D01*
X3120662Y469801D01*
X3124359Y467536D01*
X3128363Y465877D01*
X3132578Y464865D01*
X3136900Y464525D01*
X3141222Y464865D01*
X3145437Y465877D01*
X3149442Y467536D01*
X3153138Y469801D01*
X3156434Y472616D01*
X3159249Y475912D01*
X3161514Y479608D01*
X3163173Y483613D01*
X3164185Y487828D01*
X3164525Y492150D01*
X3164185Y496471D01*
X3163173Y500686D01*
X3161514Y504691D01*
X3159249Y508388D01*
X3156434Y511684D01*
X3153138Y514499D01*
X3149442Y516764D01*
X3145437Y518423D01*
X3141222Y519435D01*
X3136900Y519775D01*
D02*
G37*
G36*
X3220900D02*
X3216578Y519435D01*
X3212363Y518423D01*
X3208358Y516764D01*
X3204662Y514499D01*
X3201366Y511684D01*
X3198551Y508388D01*
X3196286Y504691D01*
X3194627Y500686D01*
X3193615Y496471D01*
X3193275Y492150D01*
X3193615Y487828D01*
X3194627Y483613D01*
X3196286Y479608D01*
X3198551Y475912D01*
X3201366Y472616D01*
X3204662Y469801D01*
X3208358Y467536D01*
X3212363Y465877D01*
X3216578Y464865D01*
X3220900Y464525D01*
X3225221Y464865D01*
X3229437Y465877D01*
X3233441Y467536D01*
X3237137Y469801D01*
X3240434Y472616D01*
X3243249Y475912D01*
X3245514Y479608D01*
X3247173Y483613D01*
X3248185Y487828D01*
X3248525Y492150D01*
X3248185Y496471D01*
X3247173Y500686D01*
X3245514Y504691D01*
X3243249Y508388D01*
X3240434Y511684D01*
X3237137Y514499D01*
X3233441Y516764D01*
X3229437Y518423D01*
X3225221Y519435D01*
X3220900Y519775D01*
D02*
G37*
G36*
X3314700D02*
X3310378Y519435D01*
X3306163Y518423D01*
X3302159Y516764D01*
X3298462Y514499D01*
X3295166Y511684D01*
X3292351Y508388D01*
X3290086Y504691D01*
X3288427Y500686D01*
X3287415Y496471D01*
X3287075Y492150D01*
X3287415Y487828D01*
X3288427Y483613D01*
X3290086Y479608D01*
X3292351Y475912D01*
X3295166Y472616D01*
X3298462Y469801D01*
X3302159Y467536D01*
X3306163Y465877D01*
X3310378Y464865D01*
X3314700Y464525D01*
X3319022Y464865D01*
X3323237Y465877D01*
X3327242Y467536D01*
X3330938Y469801D01*
X3334234Y472616D01*
X3337049Y475912D01*
X3339314Y479608D01*
X3340973Y483613D01*
X3341985Y487828D01*
X3342325Y492150D01*
X3341985Y496471D01*
X3340973Y500686D01*
X3339314Y504691D01*
X3337049Y508388D01*
X3334234Y511684D01*
X3330938Y514499D01*
X3327242Y516764D01*
X3323237Y518423D01*
X3319022Y519435D01*
X3314700Y519775D01*
D02*
G37*
G36*
X3043100D02*
X3038778Y519435D01*
X3034563Y518423D01*
X3030558Y516764D01*
X3026862Y514499D01*
X3023566Y511684D01*
X3020751Y508388D01*
X3018486Y504691D01*
X3016827Y500686D01*
X3015815Y496471D01*
X3015475Y492150D01*
X3015815Y487828D01*
X3016827Y483613D01*
X3018486Y479608D01*
X3020751Y475912D01*
X3023566Y472616D01*
X3026862Y469801D01*
X3030558Y467536D01*
X3034563Y465877D01*
X3038778Y464865D01*
X3043100Y464525D01*
X3047421Y464865D01*
X3051636Y465877D01*
X3055641Y467536D01*
X3059337Y469801D01*
X3062634Y472616D01*
X3065449Y475912D01*
X3067714Y479608D01*
X3069373Y483613D01*
X3070385Y487828D01*
X3070725Y492150D01*
X3070385Y496471D01*
X3069373Y500686D01*
X3067714Y504691D01*
X3065449Y508388D01*
X3062634Y511684D01*
X3059337Y514499D01*
X3055641Y516764D01*
X3051636Y518423D01*
X3047421Y519435D01*
X3043100Y519775D01*
D02*
G37*
G36*
X2781300D02*
X2776978Y519435D01*
X2772763Y518423D01*
X2768759Y516764D01*
X2765062Y514499D01*
X2761766Y511684D01*
X2758951Y508388D01*
X2756686Y504691D01*
X2755027Y500686D01*
X2754015Y496471D01*
X2753675Y492150D01*
X2754015Y487828D01*
X2755027Y483613D01*
X2756686Y479608D01*
X2758951Y475912D01*
X2761766Y472616D01*
X2765062Y469801D01*
X2768759Y467536D01*
X2772763Y465877D01*
X2776978Y464865D01*
X2781300Y464525D01*
X2785622Y464865D01*
X2789837Y465877D01*
X2793842Y467536D01*
X2797538Y469801D01*
X2800834Y472616D01*
X2803649Y475912D01*
X2805914Y479608D01*
X2807573Y483613D01*
X2808585Y487828D01*
X2808925Y492150D01*
X2808585Y496471D01*
X2807573Y500686D01*
X2805914Y504691D01*
X2803649Y508388D01*
X2800834Y511684D01*
X2797538Y514499D01*
X2793842Y516764D01*
X2789837Y518423D01*
X2785622Y519435D01*
X2781300Y519775D01*
D02*
G37*
G36*
X2865300D02*
X2860978Y519435D01*
X2856763Y518423D01*
X2852758Y516764D01*
X2849062Y514499D01*
X2845766Y511684D01*
X2842951Y508388D01*
X2840686Y504691D01*
X2839027Y500686D01*
X2838015Y496471D01*
X2837675Y492150D01*
X2838015Y487828D01*
X2839027Y483613D01*
X2840686Y479608D01*
X2842951Y475912D01*
X2845766Y472616D01*
X2849062Y469801D01*
X2852758Y467536D01*
X2856763Y465877D01*
X2860978Y464865D01*
X2865300Y464525D01*
X2869621Y464865D01*
X2873836Y465877D01*
X2877841Y467536D01*
X2881537Y469801D01*
X2884834Y472616D01*
X2887649Y475912D01*
X2889914Y479608D01*
X2891573Y483613D01*
X2892585Y487828D01*
X2892925Y492150D01*
X2892585Y496471D01*
X2891573Y500686D01*
X2889914Y504691D01*
X2887649Y508388D01*
X2884834Y511684D01*
X2881537Y514499D01*
X2877841Y516764D01*
X2873836Y518423D01*
X2869621Y519435D01*
X2865300Y519775D01*
D02*
G37*
G36*
X2959100D02*
X2954778Y519435D01*
X2950563Y518423D01*
X2946559Y516764D01*
X2942862Y514499D01*
X2939566Y511684D01*
X2936751Y508388D01*
X2934486Y504691D01*
X2932827Y500686D01*
X2931815Y496471D01*
X2931475Y492150D01*
X2931815Y487828D01*
X2932827Y483613D01*
X2934486Y479608D01*
X2936751Y475912D01*
X2939566Y472616D01*
X2942862Y469801D01*
X2946559Y467536D01*
X2950563Y465877D01*
X2954778Y464865D01*
X2959100Y464525D01*
X2963422Y464865D01*
X2967637Y465877D01*
X2971642Y467536D01*
X2975338Y469801D01*
X2978634Y472616D01*
X2981449Y475912D01*
X2983714Y479608D01*
X2985373Y483613D01*
X2986385Y487828D01*
X2986725Y492150D01*
X2986385Y496471D01*
X2985373Y500686D01*
X2983714Y504691D01*
X2981449Y508388D01*
X2978634Y511684D01*
X2975338Y514499D01*
X2971642Y516764D01*
X2967637Y518423D01*
X2963422Y519435D01*
X2959100Y519775D01*
D02*
G37*
G36*
X3043100Y581770D02*
X3039857Y581451D01*
X3036740Y580505D01*
X3033866Y578969D01*
X3031348Y576902D01*
X3029281Y574384D01*
X3027745Y571510D01*
X3026799Y568392D01*
X3026480Y565150D01*
X3026799Y561908D01*
X3027745Y558790D01*
X3029281Y555916D01*
X3031348Y553398D01*
X3033866Y551331D01*
X3036740Y549795D01*
X3039857Y548849D01*
X3043100Y548530D01*
X3046342Y548849D01*
X3049460Y549795D01*
X3052333Y551331D01*
X3054852Y553398D01*
X3056919Y555916D01*
X3058455Y558790D01*
X3059401Y561908D01*
X3059720Y565150D01*
X3059401Y568392D01*
X3058455Y571510D01*
X3056919Y574384D01*
X3054852Y576902D01*
X3052333Y578969D01*
X3049460Y580505D01*
X3046342Y581451D01*
X3043100Y581770D01*
D02*
G37*
G36*
X3178900D02*
X3175657Y581451D01*
X3172540Y580505D01*
X3169666Y578969D01*
X3167148Y576902D01*
X3165081Y574384D01*
X3163545Y571510D01*
X3162599Y568392D01*
X3162280Y565150D01*
X3162599Y561908D01*
X3163545Y558790D01*
X3165081Y555916D01*
X3167148Y553398D01*
X3169666Y551331D01*
X3172540Y549795D01*
X3175657Y548849D01*
X3178900Y548530D01*
X3182142Y548849D01*
X3185260Y549795D01*
X3188134Y551331D01*
X3190652Y553398D01*
X3192719Y555916D01*
X3194255Y558790D01*
X3195201Y561908D01*
X3195520Y565150D01*
X3195201Y568392D01*
X3194255Y571510D01*
X3192719Y574384D01*
X3190652Y576902D01*
X3188134Y578969D01*
X3185260Y580505D01*
X3182142Y581451D01*
X3178900Y581770D01*
D02*
G37*
G36*
X3220900D02*
X3217657Y581451D01*
X3214539Y580505D01*
X3211666Y578969D01*
X3209148Y576902D01*
X3207081Y574384D01*
X3205545Y571510D01*
X3204599Y568392D01*
X3204280Y565150D01*
X3204599Y561908D01*
X3205545Y558790D01*
X3207081Y555916D01*
X3209148Y553398D01*
X3211666Y551331D01*
X3214539Y549795D01*
X3217657Y548849D01*
X3220900Y548530D01*
X3224142Y548849D01*
X3227260Y549795D01*
X3230133Y551331D01*
X3232652Y553398D01*
X3234719Y555916D01*
X3236255Y558790D01*
X3237201Y561908D01*
X3237520Y565150D01*
X3237201Y568392D01*
X3236255Y571510D01*
X3234719Y574384D01*
X3232652Y576902D01*
X3230133Y578969D01*
X3227260Y580505D01*
X3224142Y581451D01*
X3220900Y581770D01*
D02*
G37*
G36*
X3001100D02*
X2997857Y581451D01*
X2994740Y580505D01*
X2991866Y578969D01*
X2989348Y576902D01*
X2987281Y574384D01*
X2985745Y571510D01*
X2984799Y568392D01*
X2984480Y565150D01*
X2984799Y561908D01*
X2985745Y558790D01*
X2987281Y555916D01*
X2989348Y553398D01*
X2991866Y551331D01*
X2994740Y549795D01*
X2997857Y548849D01*
X3001100Y548530D01*
X3004342Y548849D01*
X3007460Y549795D01*
X3010334Y551331D01*
X3012852Y553398D01*
X3014919Y555916D01*
X3016455Y558790D01*
X3017401Y561908D01*
X3017720Y565150D01*
X3017401Y568392D01*
X3016455Y571510D01*
X3014919Y574384D01*
X3012852Y576902D01*
X3010334Y578969D01*
X3007460Y580505D01*
X3004342Y581451D01*
X3001100Y581770D01*
D02*
G37*
G36*
X3398700Y519775D02*
X3394378Y519435D01*
X3390163Y518423D01*
X3386158Y516764D01*
X3382462Y514499D01*
X3379166Y511684D01*
X3376351Y508388D01*
X3374086Y504691D01*
X3372427Y500686D01*
X3371415Y496471D01*
X3371075Y492150D01*
X3371415Y487828D01*
X3372427Y483613D01*
X3374086Y479608D01*
X3376351Y475912D01*
X3379166Y472616D01*
X3382462Y469801D01*
X3386158Y467536D01*
X3390163Y465877D01*
X3394378Y464865D01*
X3398700Y464525D01*
X3403022Y464865D01*
X3407237Y465877D01*
X3411241Y467536D01*
X3414937Y469801D01*
X3418234Y472616D01*
X3421049Y475912D01*
X3423314Y479608D01*
X3424973Y483613D01*
X3425985Y487828D01*
X3426325Y492150D01*
X3425985Y496471D01*
X3424973Y500686D01*
X3423314Y504691D01*
X3421049Y508388D01*
X3418234Y511684D01*
X3414937Y514499D01*
X3411241Y516764D01*
X3407237Y518423D01*
X3403022Y519435D01*
X3398700Y519775D01*
D02*
G37*
G36*
X2823300Y581770D02*
X2820057Y581451D01*
X2816940Y580505D01*
X2814066Y578969D01*
X2811548Y576902D01*
X2809481Y574384D01*
X2807945Y571510D01*
X2806999Y568392D01*
X2806680Y565150D01*
X2806999Y561908D01*
X2807945Y558790D01*
X2809481Y555916D01*
X2811548Y553398D01*
X2814066Y551331D01*
X2816940Y549795D01*
X2820057Y548849D01*
X2823300Y548530D01*
X2826542Y548849D01*
X2829660Y549795D01*
X2832534Y551331D01*
X2835052Y553398D01*
X2837119Y555916D01*
X2838655Y558790D01*
X2839601Y561908D01*
X2839920Y565150D01*
X2839601Y568392D01*
X2838655Y571510D01*
X2837119Y574384D01*
X2835052Y576902D01*
X2832534Y578969D01*
X2829660Y580505D01*
X2826542Y581451D01*
X2823300Y581770D01*
D02*
G37*
G36*
X2865300D02*
X2862057Y581451D01*
X2858940Y580505D01*
X2856066Y578969D01*
X2853548Y576902D01*
X2851481Y574384D01*
X2849945Y571510D01*
X2848999Y568392D01*
X2848680Y565150D01*
X2848999Y561908D01*
X2849945Y558790D01*
X2851481Y555916D01*
X2853548Y553398D01*
X2856066Y551331D01*
X2858940Y549795D01*
X2862057Y548849D01*
X2865300Y548530D01*
X2868542Y548849D01*
X2871660Y549795D01*
X2874533Y551331D01*
X2877052Y553398D01*
X2879119Y555916D01*
X2880655Y558790D01*
X2881601Y561908D01*
X2881920Y565150D01*
X2881601Y568392D01*
X2880655Y571510D01*
X2879119Y574384D01*
X2877052Y576902D01*
X2874533Y578969D01*
X2871660Y580505D01*
X2868542Y581451D01*
X2865300Y581770D01*
D02*
G37*
G36*
X3061250Y778620D02*
X3058008Y778301D01*
X3054890Y777355D01*
X3052017Y775819D01*
X3049498Y773752D01*
X3047431Y771234D01*
X3045895Y768360D01*
X3044950Y765242D01*
X3044630Y762000D01*
X3044950Y758758D01*
X3045895Y755640D01*
X3047431Y752766D01*
X3049498Y750248D01*
X3052017Y748181D01*
X3054890Y746645D01*
X3058008Y745699D01*
X3061250Y745380D01*
X3064492Y745699D01*
X3067610Y746645D01*
X3070484Y748181D01*
X3073002Y750248D01*
X3075069Y752766D01*
X3076605Y755640D01*
X3077551Y758758D01*
X3077870Y762000D01*
X3077551Y765242D01*
X3076605Y768360D01*
X3075069Y771234D01*
X3073002Y773752D01*
X3070484Y775819D01*
X3067610Y777355D01*
X3064492Y778301D01*
X3061250Y778620D01*
D02*
G37*
G36*
X3235990Y918240D02*
X3202910D01*
Y885160D01*
X3235990D01*
Y918240D01*
D02*
G37*
G36*
X3413790D02*
X3380710D01*
Y885160D01*
X3413790D01*
Y918240D01*
D02*
G37*
G36*
X2779850Y1002325D02*
X2775529Y1001985D01*
X2771313Y1000973D01*
X2767309Y999314D01*
X2763612Y997049D01*
X2760316Y994234D01*
X2757501Y990938D01*
X2755236Y987242D01*
X2753577Y983237D01*
X2752565Y979022D01*
X2752225Y974700D01*
X2752565Y970379D01*
X2753577Y966163D01*
X2755236Y962159D01*
X2757501Y958462D01*
X2760316Y955166D01*
X2763612Y952351D01*
X2767309Y950086D01*
X2771313Y948427D01*
X2775529Y947415D01*
X2779850Y947075D01*
X2784172Y947415D01*
X2788387Y948427D01*
X2792392Y950086D01*
X2796088Y952351D01*
X2799384Y955166D01*
X2802199Y958462D01*
X2804464Y962159D01*
X2806123Y966163D01*
X2807135Y970379D01*
X2807475Y974700D01*
X2807135Y979022D01*
X2806123Y983237D01*
X2804464Y987242D01*
X2802199Y990938D01*
X2799384Y994234D01*
X2796088Y997049D01*
X2792392Y999314D01*
X2788387Y1000973D01*
X2784172Y1001985D01*
X2779850Y1002325D01*
D02*
G37*
G36*
X3058190Y918240D02*
X3025110D01*
Y885160D01*
X3058190D01*
Y918240D01*
D02*
G37*
G36*
X3313250Y918320D02*
X3310008Y918001D01*
X3306890Y917055D01*
X3304017Y915519D01*
X3301498Y913452D01*
X3299431Y910934D01*
X3297895Y908060D01*
X3296949Y904942D01*
X3296630Y901700D01*
X3296949Y898458D01*
X3297895Y895340D01*
X3299431Y892466D01*
X3301498Y889948D01*
X3304017Y887881D01*
X3306890Y886345D01*
X3310008Y885399D01*
X3313250Y885080D01*
X3316493Y885399D01*
X3319610Y886345D01*
X3322484Y887881D01*
X3325002Y889948D01*
X3327069Y892466D01*
X3328605Y895340D01*
X3329551Y898458D01*
X3329870Y901700D01*
X3329551Y904942D01*
X3328605Y908060D01*
X3327069Y910934D01*
X3325002Y913452D01*
X3322484Y915519D01*
X3319610Y917055D01*
X3316493Y918001D01*
X3313250Y918320D01*
D02*
G37*
G36*
X3355250D02*
X3352008Y918001D01*
X3348890Y917055D01*
X3346017Y915519D01*
X3343498Y913452D01*
X3341431Y910934D01*
X3339895Y908060D01*
X3338949Y904942D01*
X3338630Y901700D01*
X3338949Y898458D01*
X3339895Y895340D01*
X3341431Y892466D01*
X3343498Y889948D01*
X3346017Y887881D01*
X3348890Y886345D01*
X3352008Y885399D01*
X3355250Y885080D01*
X3358492Y885399D01*
X3361610Y886345D01*
X3364484Y887881D01*
X3367002Y889948D01*
X3369069Y892466D01*
X3370605Y895340D01*
X3371551Y898458D01*
X3371870Y901700D01*
X3371551Y904942D01*
X3370605Y908060D01*
X3369069Y910934D01*
X3367002Y913452D01*
X3364484Y915519D01*
X3361610Y917055D01*
X3358492Y918001D01*
X3355250Y918320D01*
D02*
G37*
G36*
X2880390Y918240D02*
X2847310D01*
Y885160D01*
X2880390D01*
Y918240D01*
D02*
G37*
G36*
X3219450Y1002325D02*
X3215128Y1001985D01*
X3210913Y1000973D01*
X3206908Y999314D01*
X3203212Y997049D01*
X3199916Y994234D01*
X3197101Y990938D01*
X3194836Y987242D01*
X3193177Y983237D01*
X3192165Y979022D01*
X3191825Y974700D01*
X3192165Y970379D01*
X3193177Y966163D01*
X3194836Y962159D01*
X3197101Y958462D01*
X3199916Y955166D01*
X3203212Y952351D01*
X3206908Y950086D01*
X3210913Y948427D01*
X3215128Y947415D01*
X3219450Y947075D01*
X3223771Y947415D01*
X3227986Y948427D01*
X3231992Y950086D01*
X3235688Y952351D01*
X3238984Y955166D01*
X3241799Y958462D01*
X3244064Y962159D01*
X3245723Y966163D01*
X3246735Y970379D01*
X3247075Y974700D01*
X3246735Y979022D01*
X3245723Y983237D01*
X3244064Y987242D01*
X3241799Y990938D01*
X3238984Y994234D01*
X3235688Y997049D01*
X3231992Y999314D01*
X3227986Y1000973D01*
X3223771Y1001985D01*
X3219450Y1002325D01*
D02*
G37*
G36*
X3313250D02*
X3308929Y1001985D01*
X3304713Y1000973D01*
X3300709Y999314D01*
X3297013Y997049D01*
X3293716Y994234D01*
X3290901Y990938D01*
X3288636Y987242D01*
X3286977Y983237D01*
X3285965Y979022D01*
X3285625Y974700D01*
X3285965Y970379D01*
X3286977Y966163D01*
X3288636Y962159D01*
X3290901Y958462D01*
X3293716Y955166D01*
X3297013Y952351D01*
X3300709Y950086D01*
X3304713Y948427D01*
X3308929Y947415D01*
X3313250Y947075D01*
X3317572Y947415D01*
X3321787Y948427D01*
X3325792Y950086D01*
X3329488Y952351D01*
X3332784Y955166D01*
X3335599Y958462D01*
X3337864Y962159D01*
X3339523Y966163D01*
X3340535Y970379D01*
X3340875Y974700D01*
X3340535Y979022D01*
X3339523Y983237D01*
X3337864Y987242D01*
X3335599Y990938D01*
X3332784Y994234D01*
X3329488Y997049D01*
X3325792Y999314D01*
X3321787Y1000973D01*
X3317572Y1001985D01*
X3313250Y1002325D01*
D02*
G37*
G36*
X3397250D02*
X3392928Y1001985D01*
X3388713Y1000973D01*
X3384708Y999314D01*
X3381012Y997049D01*
X3377716Y994234D01*
X3374901Y990938D01*
X3372636Y987242D01*
X3370977Y983237D01*
X3369965Y979022D01*
X3369625Y974700D01*
X3369965Y970379D01*
X3370977Y966163D01*
X3372636Y962159D01*
X3374901Y958462D01*
X3377716Y955166D01*
X3381012Y952351D01*
X3384708Y950086D01*
X3388713Y948427D01*
X3392928Y947415D01*
X3397250Y947075D01*
X3401571Y947415D01*
X3405787Y948427D01*
X3409792Y950086D01*
X3413488Y952351D01*
X3416784Y955166D01*
X3419599Y958462D01*
X3421864Y962159D01*
X3423523Y966163D01*
X3424535Y970379D01*
X3424875Y974700D01*
X3424535Y979022D01*
X3423523Y983237D01*
X3421864Y987242D01*
X3419599Y990938D01*
X3416784Y994234D01*
X3413488Y997049D01*
X3409792Y999314D01*
X3405787Y1000973D01*
X3401571Y1001985D01*
X3397250Y1002325D01*
D02*
G37*
G36*
X3135450D02*
X3131129Y1001985D01*
X3126913Y1000973D01*
X3122909Y999314D01*
X3119213Y997049D01*
X3115916Y994234D01*
X3113101Y990938D01*
X3110836Y987242D01*
X3109177Y983237D01*
X3108165Y979022D01*
X3107825Y974700D01*
X3108165Y970379D01*
X3109177Y966163D01*
X3110836Y962159D01*
X3113101Y958462D01*
X3115916Y955166D01*
X3119213Y952351D01*
X3122909Y950086D01*
X3126913Y948427D01*
X3131129Y947415D01*
X3135450Y947075D01*
X3139772Y947415D01*
X3143987Y948427D01*
X3147992Y950086D01*
X3151688Y952351D01*
X3154984Y955166D01*
X3157799Y958462D01*
X3160064Y962159D01*
X3161723Y966163D01*
X3162735Y970379D01*
X3163075Y974700D01*
X3162735Y979022D01*
X3161723Y983237D01*
X3160064Y987242D01*
X3157799Y990938D01*
X3154984Y994234D01*
X3151688Y997049D01*
X3147992Y999314D01*
X3143987Y1000973D01*
X3139772Y1001985D01*
X3135450Y1002325D01*
D02*
G37*
G36*
X2863850D02*
X2859529Y1001985D01*
X2855313Y1000973D01*
X2851308Y999314D01*
X2847612Y997049D01*
X2844316Y994234D01*
X2841501Y990938D01*
X2839236Y987242D01*
X2837577Y983237D01*
X2836565Y979022D01*
X2836225Y974700D01*
X2836565Y970379D01*
X2837577Y966163D01*
X2839236Y962159D01*
X2841501Y958462D01*
X2844316Y955166D01*
X2847612Y952351D01*
X2851308Y950086D01*
X2855313Y948427D01*
X2859529Y947415D01*
X2863850Y947075D01*
X2868171Y947415D01*
X2872386Y948427D01*
X2876392Y950086D01*
X2880088Y952351D01*
X2883384Y955166D01*
X2886199Y958462D01*
X2888464Y962159D01*
X2890123Y966163D01*
X2891135Y970379D01*
X2891475Y974700D01*
X2891135Y979022D01*
X2890123Y983237D01*
X2888464Y987242D01*
X2886199Y990938D01*
X2883384Y994234D01*
X2880088Y997049D01*
X2876392Y999314D01*
X2872386Y1000973D01*
X2868171Y1001985D01*
X2863850Y1002325D01*
D02*
G37*
G36*
X2957650D02*
X2953329Y1001985D01*
X2949113Y1000973D01*
X2945109Y999314D01*
X2941412Y997049D01*
X2938116Y994234D01*
X2935301Y990938D01*
X2933036Y987242D01*
X2931377Y983237D01*
X2930365Y979022D01*
X2930025Y974700D01*
X2930365Y970379D01*
X2931377Y966163D01*
X2933036Y962159D01*
X2935301Y958462D01*
X2938116Y955166D01*
X2941412Y952351D01*
X2945109Y950086D01*
X2949113Y948427D01*
X2953329Y947415D01*
X2957650Y947075D01*
X2961972Y947415D01*
X2966187Y948427D01*
X2970192Y950086D01*
X2973888Y952351D01*
X2977184Y955166D01*
X2979999Y958462D01*
X2982264Y962159D01*
X2983923Y966163D01*
X2984935Y970379D01*
X2985275Y974700D01*
X2984935Y979022D01*
X2983923Y983237D01*
X2982264Y987242D01*
X2979999Y990938D01*
X2977184Y994234D01*
X2973888Y997049D01*
X2970192Y999314D01*
X2966187Y1000973D01*
X2961972Y1001985D01*
X2957650Y1002325D01*
D02*
G37*
G36*
X3041650D02*
X3037328Y1001985D01*
X3033113Y1000973D01*
X3029108Y999314D01*
X3025412Y997049D01*
X3022116Y994234D01*
X3019301Y990938D01*
X3017036Y987242D01*
X3015377Y983237D01*
X3014365Y979022D01*
X3014025Y974700D01*
X3014365Y970379D01*
X3015377Y966163D01*
X3017036Y962159D01*
X3019301Y958462D01*
X3022116Y955166D01*
X3025412Y952351D01*
X3029108Y950086D01*
X3033113Y948427D01*
X3037328Y947415D01*
X3041650Y947075D01*
X3045971Y947415D01*
X3050186Y948427D01*
X3054192Y950086D01*
X3057888Y952351D01*
X3061184Y955166D01*
X3063999Y958462D01*
X3066264Y962159D01*
X3067923Y966163D01*
X3068935Y970379D01*
X3069275Y974700D01*
X3068935Y979022D01*
X3067923Y983237D01*
X3066264Y987242D01*
X3063999Y990938D01*
X3061184Y994234D01*
X3057888Y997049D01*
X3054192Y999314D01*
X3050186Y1000973D01*
X3045971Y1001985D01*
X3041650Y1002325D01*
D02*
G37*
G36*
X3177450Y918320D02*
X3174208Y918001D01*
X3171090Y917055D01*
X3168217Y915519D01*
X3165698Y913452D01*
X3163631Y910934D01*
X3162095Y908060D01*
X3161149Y904942D01*
X3160830Y901700D01*
X3161149Y898458D01*
X3162095Y895340D01*
X3163631Y892466D01*
X3165698Y889948D01*
X3168217Y887881D01*
X3171090Y886345D01*
X3174208Y885399D01*
X3177450Y885080D01*
X3180692Y885399D01*
X3183810Y886345D01*
X3186684Y887881D01*
X3189202Y889948D01*
X3191269Y892466D01*
X3192805Y895340D01*
X3193751Y898458D01*
X3194070Y901700D01*
X3193751Y904942D01*
X3192805Y908060D01*
X3191269Y910934D01*
X3189202Y913452D01*
X3186684Y915519D01*
X3183810Y917055D01*
X3180692Y918001D01*
X3177450Y918320D01*
D02*
G37*
G36*
X3355250Y778620D02*
X3352008Y778301D01*
X3348890Y777355D01*
X3346017Y775819D01*
X3343498Y773752D01*
X3341431Y771234D01*
X3339895Y768360D01*
X3338949Y765242D01*
X3338630Y762000D01*
X3338949Y758758D01*
X3339895Y755640D01*
X3341431Y752766D01*
X3343498Y750248D01*
X3346017Y748181D01*
X3348890Y746645D01*
X3352008Y745699D01*
X3355250Y745380D01*
X3358492Y745699D01*
X3361610Y746645D01*
X3364484Y748181D01*
X3367002Y750248D01*
X3369069Y752766D01*
X3370605Y755640D01*
X3371551Y758758D01*
X3371870Y762000D01*
X3371551Y765242D01*
X3370605Y768360D01*
X3369069Y771234D01*
X3367002Y773752D01*
X3364484Y775819D01*
X3361610Y777355D01*
X3358492Y778301D01*
X3355250Y778620D01*
D02*
G37*
G36*
X3397250D02*
X3394008Y778301D01*
X3390890Y777355D01*
X3388016Y775819D01*
X3385498Y773752D01*
X3383431Y771234D01*
X3381895Y768360D01*
X3380949Y765242D01*
X3380630Y762000D01*
X3380949Y758758D01*
X3381895Y755640D01*
X3383431Y752766D01*
X3385498Y750248D01*
X3388016Y748181D01*
X3390890Y746645D01*
X3394008Y745699D01*
X3397250Y745380D01*
X3400492Y745699D01*
X3403610Y746645D01*
X3406483Y748181D01*
X3409002Y750248D01*
X3411069Y752766D01*
X3412605Y755640D01*
X3413551Y758758D01*
X3413870Y762000D01*
X3413551Y765242D01*
X3412605Y768360D01*
X3411069Y771234D01*
X3409002Y773752D01*
X3406483Y775819D01*
X3403610Y777355D01*
X3400492Y778301D01*
X3397250Y778620D01*
D02*
G37*
G36*
X2951790Y778540D02*
X2918710D01*
Y745460D01*
X2951790D01*
Y778540D01*
D02*
G37*
G36*
X3313250Y778620D02*
X3310008Y778301D01*
X3306890Y777355D01*
X3304017Y775819D01*
X3301498Y773752D01*
X3299431Y771234D01*
X3297895Y768360D01*
X3296949Y765242D01*
X3296630Y762000D01*
X3296949Y758758D01*
X3297895Y755640D01*
X3299431Y752766D01*
X3301498Y750248D01*
X3304017Y748181D01*
X3306890Y746645D01*
X3310008Y745699D01*
X3313250Y745380D01*
X3316493Y745699D01*
X3319610Y746645D01*
X3322484Y748181D01*
X3325002Y750248D01*
X3327069Y752766D01*
X3328605Y755640D01*
X3329551Y758758D01*
X3329870Y762000D01*
X3329551Y765242D01*
X3328605Y768360D01*
X3327069Y771234D01*
X3325002Y773752D01*
X3322484Y775819D01*
X3319610Y777355D01*
X3316493Y778301D01*
X3313250Y778620D01*
D02*
G37*
G36*
X3145250D02*
X3142008Y778301D01*
X3138890Y777355D01*
X3136017Y775819D01*
X3133498Y773752D01*
X3131431Y771234D01*
X3129895Y768360D01*
X3128949Y765242D01*
X3128630Y762000D01*
X3128949Y758758D01*
X3129895Y755640D01*
X3131431Y752766D01*
X3133498Y750248D01*
X3136017Y748181D01*
X3138890Y746645D01*
X3142008Y745699D01*
X3145250Y745380D01*
X3148492Y745699D01*
X3151610Y746645D01*
X3154484Y748181D01*
X3157002Y750248D01*
X3159069Y752766D01*
X3160605Y755640D01*
X3161551Y758758D01*
X3161870Y762000D01*
X3161551Y765242D01*
X3160605Y768360D01*
X3159069Y771234D01*
X3157002Y773752D01*
X3154484Y775819D01*
X3151610Y777355D01*
X3148492Y778301D01*
X3145250Y778620D01*
D02*
G37*
G36*
X3229250D02*
X3226007Y778301D01*
X3222890Y777355D01*
X3220016Y775819D01*
X3217498Y773752D01*
X3215431Y771234D01*
X3213895Y768360D01*
X3212949Y765242D01*
X3212630Y762000D01*
X3212949Y758758D01*
X3213895Y755640D01*
X3215431Y752766D01*
X3217498Y750248D01*
X3220016Y748181D01*
X3222890Y746645D01*
X3226007Y745699D01*
X3229250Y745380D01*
X3232492Y745699D01*
X3235610Y746645D01*
X3238483Y748181D01*
X3241002Y750248D01*
X3243069Y752766D01*
X3244605Y755640D01*
X3245551Y758758D01*
X3245870Y762000D01*
X3245551Y765242D01*
X3244605Y768360D01*
X3243069Y771234D01*
X3241002Y773752D01*
X3238483Y775819D01*
X3235610Y777355D01*
X3232492Y778301D01*
X3229250Y778620D01*
D02*
G37*
G36*
X3271250D02*
X3268007Y778301D01*
X3264890Y777355D01*
X3262016Y775819D01*
X3259498Y773752D01*
X3257431Y771234D01*
X3255895Y768360D01*
X3254949Y765242D01*
X3254630Y762000D01*
X3254949Y758758D01*
X3255895Y755640D01*
X3257431Y752766D01*
X3259498Y750248D01*
X3262016Y748181D01*
X3264890Y746645D01*
X3268007Y745699D01*
X3271250Y745380D01*
X3274492Y745699D01*
X3277610Y746645D01*
X3280483Y748181D01*
X3283002Y750248D01*
X3285069Y752766D01*
X3286605Y755640D01*
X3287550Y758758D01*
X3287870Y762000D01*
X3287550Y765242D01*
X3286605Y768360D01*
X3285069Y771234D01*
X3283002Y773752D01*
X3280483Y775819D01*
X3277610Y777355D01*
X3274492Y778301D01*
X3271250Y778620D01*
D02*
G37*
G36*
X2957650Y918320D02*
X2954408Y918001D01*
X2951290Y917055D01*
X2948417Y915519D01*
X2945898Y913452D01*
X2943831Y910934D01*
X2942295Y908060D01*
X2941349Y904942D01*
X2941030Y901700D01*
X2941349Y898458D01*
X2942295Y895340D01*
X2943831Y892466D01*
X2945898Y889948D01*
X2948417Y887881D01*
X2951290Y886345D01*
X2954408Y885399D01*
X2957650Y885080D01*
X2960893Y885399D01*
X2964010Y886345D01*
X2966884Y887881D01*
X2969402Y889948D01*
X2971469Y892466D01*
X2973005Y895340D01*
X2973951Y898458D01*
X2974270Y901700D01*
X2973951Y904942D01*
X2973005Y908060D01*
X2971469Y910934D01*
X2969402Y913452D01*
X2966884Y915519D01*
X2964010Y917055D01*
X2960893Y918001D01*
X2957650Y918320D01*
D02*
G37*
G36*
X2999650D02*
X2996408Y918001D01*
X2993290Y917055D01*
X2990417Y915519D01*
X2987898Y913452D01*
X2985831Y910934D01*
X2984295Y908060D01*
X2983349Y904942D01*
X2983030Y901700D01*
X2983349Y898458D01*
X2984295Y895340D01*
X2985831Y892466D01*
X2987898Y889948D01*
X2990417Y887881D01*
X2993290Y886345D01*
X2996408Y885399D01*
X2999650Y885080D01*
X3002892Y885399D01*
X3006010Y886345D01*
X3008884Y887881D01*
X3011402Y889948D01*
X3013469Y892466D01*
X3015005Y895340D01*
X3015951Y898458D01*
X3016270Y901700D01*
X3015951Y904942D01*
X3015005Y908060D01*
X3013469Y910934D01*
X3011402Y913452D01*
X3008884Y915519D01*
X3006010Y917055D01*
X3002892Y918001D01*
X2999650Y918320D01*
D02*
G37*
G36*
X3135450D02*
X3132208Y918001D01*
X3129090Y917055D01*
X3126217Y915519D01*
X3123698Y913452D01*
X3121631Y910934D01*
X3120095Y908060D01*
X3119149Y904942D01*
X3118830Y901700D01*
X3119149Y898458D01*
X3120095Y895340D01*
X3121631Y892466D01*
X3123698Y889948D01*
X3126217Y887881D01*
X3129090Y886345D01*
X3132208Y885399D01*
X3135450Y885080D01*
X3138693Y885399D01*
X3141810Y886345D01*
X3144684Y887881D01*
X3147202Y889948D01*
X3149269Y892466D01*
X3150805Y895340D01*
X3151751Y898458D01*
X3152070Y901700D01*
X3151751Y904942D01*
X3150805Y908060D01*
X3149269Y910934D01*
X3147202Y913452D01*
X3144684Y915519D01*
X3141810Y917055D01*
X3138693Y918001D01*
X3135450Y918320D01*
D02*
G37*
G36*
X2821850D02*
X2818608Y918001D01*
X2815490Y917055D01*
X2812617Y915519D01*
X2810098Y913452D01*
X2808031Y910934D01*
X2806495Y908060D01*
X2805549Y904942D01*
X2805230Y901700D01*
X2805549Y898458D01*
X2806495Y895340D01*
X2808031Y892466D01*
X2810098Y889948D01*
X2812617Y887881D01*
X2815490Y886345D01*
X2818608Y885399D01*
X2821850Y885080D01*
X2825092Y885399D01*
X2828210Y886345D01*
X2831084Y887881D01*
X2833602Y889948D01*
X2835669Y892466D01*
X2837205Y895340D01*
X2838151Y898458D01*
X2838470Y901700D01*
X2838151Y904942D01*
X2837205Y908060D01*
X2835669Y910934D01*
X2833602Y913452D01*
X2831084Y915519D01*
X2828210Y917055D01*
X2825092Y918001D01*
X2821850Y918320D01*
D02*
G37*
G36*
X2819400Y791554D02*
X2816682Y791196D01*
X2814148Y790147D01*
X2811973Y788477D01*
X2810303Y786302D01*
X2809254Y783769D01*
X2808896Y781050D01*
X2809254Y778331D01*
X2810303Y775798D01*
X2811973Y773623D01*
X2814148Y771953D01*
X2816682Y770904D01*
X2819400Y770546D01*
X2822119Y770904D01*
X2824652Y771953D01*
X2826827Y773623D01*
X2828497Y775798D01*
X2829546Y778331D01*
X2829904Y781050D01*
X2829546Y783769D01*
X2828497Y786302D01*
X2826827Y788477D01*
X2824652Y790147D01*
X2822119Y791196D01*
X2819400Y791554D01*
D02*
G37*
G36*
X2851150D02*
X2848431Y791196D01*
X2845898Y790147D01*
X2843723Y788477D01*
X2842054Y786302D01*
X2841004Y783769D01*
X2840646Y781050D01*
X2841004Y778331D01*
X2842054Y775798D01*
X2843723Y773623D01*
X2845898Y771953D01*
X2848431Y770904D01*
X2851150Y770546D01*
X2853869Y770904D01*
X2856402Y771953D01*
X2858577Y773623D01*
X2860247Y775798D01*
X2861296Y778331D01*
X2861654Y781050D01*
X2861296Y783769D01*
X2860247Y786302D01*
X2858577Y788477D01*
X2856402Y790147D01*
X2853869Y791196D01*
X2851150Y791554D01*
D02*
G37*
G36*
X2779850Y918320D02*
X2776608Y918001D01*
X2773490Y917055D01*
X2770616Y915519D01*
X2768098Y913452D01*
X2766031Y910934D01*
X2764495Y908060D01*
X2763549Y904942D01*
X2763230Y901700D01*
X2763549Y898458D01*
X2764495Y895340D01*
X2766031Y892466D01*
X2768098Y889948D01*
X2770616Y887881D01*
X2773490Y886345D01*
X2776608Y885399D01*
X2779850Y885080D01*
X2783093Y885399D01*
X2786210Y886345D01*
X2789084Y887881D01*
X2791602Y889948D01*
X2793669Y892466D01*
X2795205Y895340D01*
X2796151Y898458D01*
X2796470Y901700D01*
X2796151Y904942D01*
X2795205Y908060D01*
X2793669Y910934D01*
X2791602Y913452D01*
X2789084Y915519D01*
X2786210Y917055D01*
X2783093Y918001D01*
X2779850Y918320D01*
D02*
G37*
%LPD*%
D10*
X2851150Y621300D02*
Y679450D01*
Y621300D02*
X2865300Y607150D01*
X2779850Y802968D02*
Y859700D01*
X2774950Y798068D02*
X2779850Y802968D01*
X2774950Y736600D02*
Y798068D01*
X2794508Y704342D02*
X2819400Y679450D01*
X2781808Y704342D02*
X2794508D01*
X2749550Y736600D02*
X2781808Y704342D01*
X3397250Y657786D02*
Y707000D01*
Y657786D02*
X3398700Y656336D01*
Y607150D02*
Y656336D01*
X3356700Y607150D02*
X3398700D01*
X3314700D02*
X3356700D01*
X3220900D02*
X3314700D01*
X3136900D02*
X3178900D01*
X3220900D01*
X3043100D02*
X3136900D01*
X2959100D02*
X3001100D01*
X3043100D01*
X2865300D02*
X2959100D01*
X2823300D02*
X2865300D01*
X2781300D02*
X2823300D01*
X2999650Y859700D02*
X3041650D01*
X2957650D02*
X2999650D01*
X2863850D02*
X2957650D01*
X2821850D02*
X2863850D01*
X2779850D02*
X2821850D01*
X3019250Y707000D02*
Y762000D01*
Y707000D02*
X3061250D01*
X3103250D02*
Y762000D01*
X3061250Y707000D02*
X3103250D01*
X3187250D02*
Y762000D01*
X3145250Y661130D02*
Y707000D01*
X3136900Y652780D02*
X3145250Y661130D01*
X3136900Y607150D02*
Y652780D01*
X3103250Y707000D02*
X3145250D01*
X3187250D01*
X3355250Y859700D02*
X3397250D01*
X3313250D02*
X3355250D01*
X3041650D02*
X3135450D01*
X3219450D02*
X3313250D01*
X3177450Y815742D02*
Y859700D01*
Y815742D02*
X3187250Y805942D01*
Y762000D02*
Y805942D01*
X3135450Y859700D02*
X3177450D01*
X3219450D01*
X2686000Y1046000D02*
X3501971D01*
X3502861Y1046889D01*
Y414610D02*
Y1046889D01*
X3501000Y412750D02*
X3502861Y414610D01*
X2689000Y412750D02*
X3501000D01*
X2686000Y415750D02*
X2689000Y412750D01*
X2686000Y415750D02*
Y1046000D01*
D11*
X3473450Y438150D02*
D03*
Y1022350D02*
D03*
X2711450Y438150D02*
D03*
Y1022350D02*
D03*
D12*
X3397250Y707000D02*
D03*
X3355250D02*
D03*
X3313250D02*
D03*
X3271250D02*
D03*
X3229250D02*
D03*
X3187250D02*
D03*
X3145250D02*
D03*
X3103250D02*
D03*
X3061250D02*
D03*
X3019250D02*
D03*
X2977250D02*
D03*
X2935250D02*
D03*
X3397250Y762000D02*
D03*
X3355250D02*
D03*
X3313250D02*
D03*
X3271250D02*
D03*
X3229250D02*
D03*
X3187250D02*
D03*
X3145250D02*
D03*
X3103250D02*
D03*
X3061250D02*
D03*
X3019250D02*
D03*
X2977250D02*
D03*
X2779850Y859700D02*
D03*
X2821850D02*
D03*
X2863850D02*
D03*
X2779850Y901700D02*
D03*
X2821850D02*
D03*
X2957650Y859700D02*
D03*
X2999650D02*
D03*
X3041650D02*
D03*
X2957650Y901700D02*
D03*
X2999650D02*
D03*
X3135450Y859700D02*
D03*
X3177450D02*
D03*
X3219450D02*
D03*
X3135450Y901700D02*
D03*
X3177450D02*
D03*
X3313250Y859700D02*
D03*
X3355250D02*
D03*
X3397250D02*
D03*
X3313250Y901700D02*
D03*
X3355250D02*
D03*
X2865300Y607150D02*
D03*
X2823300D02*
D03*
X2781300D02*
D03*
X2865300Y565150D02*
D03*
X2823300D02*
D03*
X3043100Y607150D02*
D03*
X3001100D02*
D03*
X2959100D02*
D03*
X3043100Y565150D02*
D03*
X3001100D02*
D03*
X3220900Y607150D02*
D03*
X3178900D02*
D03*
X3136900D02*
D03*
X3220900Y565150D02*
D03*
X3178900D02*
D03*
X3398700Y607150D02*
D03*
X3356700D02*
D03*
X3314700D02*
D03*
X3398700Y565150D02*
D03*
X3356700D02*
D03*
D13*
X2935250Y762000D02*
D03*
X2863850Y901700D02*
D03*
X3041650D02*
D03*
X3219450D02*
D03*
X3397250D02*
D03*
X2781300Y565150D02*
D03*
X2959100D02*
D03*
X3136900D02*
D03*
X3314700D02*
D03*
D14*
X2779850Y974700D02*
D03*
X2863850D02*
D03*
X2957650D02*
D03*
X3041650D02*
D03*
X3135450D02*
D03*
X3219450D02*
D03*
X3313250D02*
D03*
X3397250D02*
D03*
X2865300Y492150D02*
D03*
X2781300D02*
D03*
X3043100D02*
D03*
X2959100D02*
D03*
X3220900D02*
D03*
X3136900D02*
D03*
X3398700D02*
D03*
X3314700D02*
D03*
D15*
X2819400Y781050D02*
D03*
Y679450D02*
D03*
X2851150D02*
D03*
Y781050D02*
D03*
D16*
X2774950Y736600D02*
D03*
X2749550D02*
D03*
M02*
